<?xml version="1.0" encoding="utf-8"?>
<!-- Generator: Adobe Illustrator 24.0.1, SVG Export Plug-In . SVG Version: 6.00 Build 0)  -->
<svg version="1.1" id="MyDHL_" xmlns="http://www.w3.org/2000/svg" xmlns:xlink="http://www.w3.org/1999/xlink" x="0px" y="0px"
	 viewBox="0 0 196 101.4" style="enable-background:new 0 0 196 101.4;" xml:space="preserve">
<style type="text/css">
	.st0{fill:#D40511;}
	.st1{fill:#FFCC00;}
	.st2{fill:#FFFFFF;}
</style>
<title>Artboard 12000</title>
<g>
	<g>
		<polygon class="st0" points="196,76 83.7,76 58.3,101.4 58.3,76 0,76 0,0 196,0 		"/>
		<polygon class="st1" points="175.4,17.8 178.6,17.8 178.6,24.2 185,24.2 185,27.4 178.6,27.4 178.6,33.8 175.4,33.8 175.4,27.4 
			169,27.4 169,24.2 175.4,24.2 		"/>
	</g>
	<g>
		<g>
			<path class="st2" d="M15.7,54.2V17.7H28l7,21.4h1.1l7-21.4h11.8v36.5H47V28.2h-1l-7,21.4h-7.4l-7-21.4h-1v26.1H15.7z"/>
			<path class="st2" d="M67.4,64.7l3.4-10.5H68L59.5,26h8.7l5.1,21.4h0.9L79.8,26h8.5L75.7,64.7H67.4z"/>
		</g>
		<g>
			<path class="st2" d="M93.7,54.2V17.7h12.4c5.3,0,9.4,1.5,12.3,4.4c2.9,2.9,4.3,7.1,4.3,12.4v2.9c0,5.3-1.4,9.5-4.3,12.4
				s-7,4.4-12.3,4.4H93.7z M106.1,22.2h-7.5v27.7h7.5c3.8,0,6.7-1.1,8.7-3.2s3-5.3,3-9.4v-2.4c0-4.1-1-7.3-3-9.4
				C112.8,23.2,109.9,22.2,106.1,22.2z"/>
			<path class="st2" d="M126,54.2V17.7h4.9v15.8h19V17.7h4.9v36.5h-4.9V38h-19v16.3H126z"/>
			<path class="st2" d="M159.1,54.2V17.7h4.9v32.1h17.5v4.4L159.1,54.2z"/>
		</g>
	</g>
</g>
</svg>
