<svg height="261" viewBox="0 0 143 261" width="143" xmlns="http://www.w3.org/2000/svg">
  <g fill="none" fill-rule="evenodd" transform="translate(-48 -13)">
    <g transform="matrix(.95630476 .2923717 -.2923717 .95630476 66.157749 .433941)">
      <path d="m7.13795759 13.3090819c-.3059402 2.459571 1.72189414 2.1986932 3.15844021 2.2915957 6.3208028.4100849 12.5945378 1.2762368 18.9163212 1.6713071 21.5040653 1.3428638 43.00715 2.7195103 64.5151376 4.0257762 2.1347173.1295005 4.4557443.6540713 5.9707366-1.5361761 4.5930248-5.8669354 9.1723218-11.74325487 13.7996678-17.5857916.429493-.54333902 1.085499-1.11013828.78054-1.6938289-.464794-.8914889-1.372809-.30122941-2.125893-.20738847-9.997968 1.24526923-20.0028006 2.43798753-29.9948857 3.71891632-9.2056619 1.17958057-18.376023 2.64068396-27.602277 3.6260138-8.5427914.91119549-43.3611385 5.72711235-47.41778771 5.68957595" fill="#ffde92"/>
      <path d="m95.9462585 19.3295984c-28.5795168-1.8217867-92.88565754-6.8936248-94.38280716-6.1665082 3.74683476 2.5848596 8.05708099 3.5207226 12.42970846 4.1289837 1.194155.1667973 2.2417637.5103799 3.2933331.9987865 6.9748161.3525717 13.5901974 2.8635211 20.5174849 3.4997481 4.7657283.6122562 9.4304583 1.7049287 14.0417188 3.0433027 10.3226089 1.3613461 20.4689662 3.7164848 30.6915671 5.6461404 1.1367247.2147391 2.3358307-.1907682 3.4052233.4264819 1.3357505.6591991 2.7794305.7680669 4.2280614.8180062 2.2714691 1.6789602 3.7666383 4.0640625 5.49747 6.2244379 1.66548 2.0784748 3.2438242 4.2228695 5.3093366 5.9327921.276259.6701858.83769.6162514 1.401102.5613181-.816897-7.3810327-1.640726-14.7620654-2.4437602-22.1450957-.1118902-1.038738-.1198116-2.0874639-.1762517-3.1321947-1.271389.060926-2.5506994.243704-3.8121866.163801z" fill="#fabb2b"/>
      <path d="m86.8846542 38.0585273c-.0354287.7251223-1.6591766 1.5070072-1.6591766 1.5070072l16.9644484 4.9652481s-7.6688661-12.3238451-9.2783418-14.1633368c-2.0093141 2.5636938-4.0186282 5.1273877-6.02693 7.6910815z" fill="#996b00"/>
      <path d="m72.9802782 56.585686s-69.14102457-39.6770217-72.21983253-43.4912066c5.2907093 1.2221647 91.14112203 16.9980631 92.79260893 17.1398065 0 0-19.8685388 25.841917-20.5727764 26.3514001z" fill="#ffde92"/>
    </g>
    <path d="m33.3378969 98.6831659c25.5638758-14.0876942 53.2861494-16.0516205 71.8012011-8.5284312 70.340584 25.3207953-9.3350915 125.9601903-25.5408378 85.0242103-16.2057463-40.935979 65.2333328-21.586782 90.0761618 5.02327 11.939809 12.788392 16.483816 28.0788 18.103483 40.05026-.078016 32.845834-3.706302 48.032863-10.884858 45.561088" stroke="#5fe7a1" stroke-dasharray="6.950764 6.950764" stroke-linecap="round" stroke-width="1.653469" transform="matrix(.32556815 .94551858 -.94551858 .32556815 240.930371 14.133595)"/>
  </g>
  </svg>